<?xml version="1.0" encoding="UTF-8"?>
<svg xmlns="http://www.w3.org/2000/svg" xmlns:xlink="http://www.w3.org/1999/xlink" viewBox="0 0 150 150" width="150px" height="150px">
<g id="surface4249951">
<path style=" stroke:none;fill-rule:nonzero;fill:rgb(22.352941%,24.313726%,27.450982%);fill-opacity:1;" d="M 131.730469 36.011719 L 81.210938 7.617188 C 77.378906 5.472656 72.621094 5.472656 68.789062 7.617188 L 18.269531 36.011719 C 14.402344 38.179688 12 42.246094 12 46.605469 L 12 103.394531 C 12 107.753906 14.402344 111.820312 18.269531 113.988281 L 68.789062 142.382812 C 70.710938 143.460938 72.855469 144 75 144 C 77.144531 144 79.289062 143.460938 81.210938 142.382812 L 131.730469 113.988281 C 135.597656 111.820312 138 107.753906 138 103.394531 L 138 46.605469 C 138 42.246094 135.597656 38.179688 131.730469 36.011719 Z M 75 111 C 55.148438 111 39 94.851562 39 75 C 39 55.148438 55.148438 39 75 39 C 86.34375 39 96.820312 44.261719 103.628906 53.226562 L 90.480469 60.832031 C 86.53125 56.507812 80.917969 54 75 54 C 63.421875 54 54 63.421875 54 75 C 54 86.578125 63.421875 96 75 96 C 80.917969 96 86.53125 93.492188 90.480469 89.167969 L 103.628906 96.773438 C 96.820312 105.738281 86.34375 111 75 111 Z M 111 78 L 105 78 L 105 84 L 99 84 L 99 78 L 93 78 L 93 72 L 99 72 L 99 66 L 105 66 L 105 72 L 111 72 Z M 132 78 L 126 78 L 126 84 L 120 84 L 120 78 L 114 78 L 114 72 L 120 72 L 120 66 L 126 66 L 126 72 L 132 72 Z M 132 78 "/>
</g>
</svg>
